<svg xmlns="http://www.w3.org/2000/svg" data-name="Layer 1" viewBox="0 0 94.1 86.97"><path d="M90.59 3.49c-.79-.89-1.91-1.4-3.08-1.4H41.73l-13.41-.01-11.86.01c-2.26 0-4.11 1.87-4.18 4.2L2.42 80.33v.22c-.01 2.39 1.86 4.33 4.16 4.33h70.83c2.11 0 3.89-1.63 4.14-3.77L91.66 6.96c.15-1.26-.24-2.53-1.07-3.46Zm-12.4 77.19c-.05.46-.39.8-.78.8H6.58c-.41 0-.74-.37-.78-.85l9.87-73.98v-.22c.01-.51.37-.93.8-.93h11.35l-8.81 58.79h-6.66L10.34 77.7h13.77l1.29-8.64h3.78c1.39 3.12 3.55 5.52 6.48 7.2 2.93 1.68 6.64 2.52 11.14 2.52 5.58 0 10.45-1.15 14.6-3.46 4.16-2.31 7.54-5.58 10.15-9.81 2.61-4.23 4.34-9.17 5.19-14.81.85-5.7.62-10.65-.7-14.85-1.32-4.2-3.64-7.46-6.95-9.76-3.31-2.31-7.55-3.47-12.71-3.47-4.08 0-7.71.77-10.87 2.3-3.17 1.53-5.78 3.74-7.83 6.62h-.36l3.9-26.03h46.29c.26 0 .43.14.54.26.19.21.28.51.24.78L78.18 80.71Zm-43.3-32.87c.63-4.2 2.41-7.51 5.36-9.94 2.94-2.43 6.54-3.65 10.81-3.65 4.86 0 8.32 1.46 10.37 4.36 2.05 2.91 2.7 6.95 1.92 12.11-.77 5.16-2.62 9.19-5.55 12.11-2.93 2.91-6.82 4.36-11.68 4.36-4.26 0-7.5-1.22-9.71-3.65-2.22-2.43-3.01-5.74-2.38-9.94l.86-5.76Z" style="fill:#fff"/></svg>