<svg xmlns="http://www.w3.org/2000/svg" data-name="Layer 1" viewBox="0 0 356.31 93.58"><path d="M45.06 87.52c-4.88 0-8.9-.91-12.08-2.73-3.18-1.82-5.52-4.42-7.03-7.8h-4.1l-1.4 9.36H5.53l2.18-14.54h7.22l9.84-65.75h14.54L34.78 36.3h.39c2.23-3.12 5.05-5.51 8.49-7.17 3.43-1.66 7.36-2.49 11.79-2.49 5.59 0 10.19 1.26 13.78 3.76s6.11 6.03 7.54 10.58c1.43 4.55 1.69 9.92.76 16.1-.92 6.11-2.79 11.46-5.62 16.05-2.83 4.58-6.5 8.13-11.01 10.63s-9.78 3.76-15.83 3.76Zm-.75-12.59c5.27 0 9.49-1.58 12.66-4.73 3.17-3.16 5.18-7.53 6.01-13.12.84-5.59.14-9.97-2.08-13.12-2.23-3.15-5.97-4.73-11.24-4.73-4.62 0-8.52 1.32-11.71 3.95-3.19 2.63-5.13 6.23-5.81 10.78l-.94 6.24c-.68 4.55.18 8.15 2.58 10.78 2.4 2.63 5.91 3.95 10.53 3.95Zm62.2 12.59c-6.24 0-11.5-1.25-15.78-3.76-4.27-2.5-7.35-6.05-9.24-10.63-1.88-4.59-2.36-9.97-1.43-16.15.93-6.18 3.01-11.54 6.26-16.1 3.25-4.55 7.4-8.06 12.46-10.54 5.05-2.47 10.7-3.71 16.94-3.71s11.67 1.24 15.88 3.71c4.21 2.47 7.25 5.98 9.1 10.54 1.86 4.55 2.31 9.95 1.38 16.19-.93 6.18-3 11.56-6.22 16.15-3.22 4.58-7.33 8.11-12.32 10.58-4.99 2.47-10.67 3.71-17.04 3.71Zm2-12.68c5.2 0 9.47-1.58 12.81-4.73 3.33-3.15 5.42-7.5 6.24-13.02.84-5.59.06-9.95-2.33-13.07-2.4-3.12-6.19-4.68-11.4-4.68s-9.58 1.56-12.94 4.68c-3.36 3.12-5.46 7.45-6.28 12.97-.84 5.59-.05 9.97 2.37 13.12 2.42 3.16 6.27 4.73 11.53 4.73Zm62.58 12.68c-6.24 0-11.5-1.25-15.78-3.76-4.27-2.5-7.35-6.05-9.24-10.63-1.88-4.59-2.36-9.97-1.43-16.15.93-6.18 3.01-11.54 6.26-16.1 3.25-4.55 7.4-8.06 12.46-10.54 5.05-2.47 10.7-3.71 16.94-3.71s11.67 1.24 15.88 3.71c4.21 2.47 7.25 5.98 9.1 10.54 1.86 4.55 2.31 9.95 1.38 16.19-.93 6.18-3 11.56-6.22 16.15-3.22 4.58-7.33 8.11-12.32 10.58-4.99 2.47-10.67 3.71-17.04 3.71Zm2-12.68c5.2 0 9.47-1.58 12.81-4.73 3.33-3.15 5.42-7.5 6.24-13.02.84-5.59.06-9.95-2.33-13.07-2.4-3.12-6.19-4.68-11.4-4.68s-9.58 1.56-12.94 4.68c-3.36 3.12-5.46 7.45-6.28 12.97-.84 5.59-.05 9.97 2.37 13.12 2.42 3.16 6.27 4.73 11.53 4.73Zm34.96 11.51 12.03-80.28h14.54l-6.65 44.38h.39l28.07-22.63h17.37l-28.91 23.02 22.19 35.51h-17.17l-16.5-26.63-7.66 5.56-3.16 21.07h-14.54Zm71.72 0V27.83h15.44v58.52h-15.44Zm48.55 0c-4.37 0-7.76-1.11-10.16-3.33-2.41-2.22-3.61-5.59-3.61-10.11V40.72h-11.78V27.83h11.89V6.06h15.11v21.76h17.22v12.89H330v32.64h20.8l-2.25 13h-20.22ZM279.77 6.06h15.44V21.3h-15.44z" style="fill:#022647"/></svg>