<svg xmlns="http://www.w3.org/2000/svg" id="Layer_1" data-name="Layer 1" viewBox="0 0 94.1 86.97"><defs><style>.cls-1{fill:#fff}</style></defs><path d="M36.41 63.51c2.22 2.43 5.45 3.65 9.71 3.65 4.86 0 8.75-1.45 11.68-4.36 2.92-2.91 4.78-6.94 5.55-12.11.77-5.16.13-9.19-1.92-12.11-2.05-2.91-5.51-4.36-10.37-4.36-4.26 0-7.86 1.21-10.81 3.65-2.95 2.43-4.73 5.75-5.36 9.94l-.86 5.76c-.63 4.2.16 7.51 2.38 9.94Z" class="cls-1"/><path d="M87.52 3.79H41.49l-4.15 27.72h.36c2.05-2.88 4.66-5.09 7.83-6.62 3.17-1.53 6.79-2.3 10.87-2.3 5.16 0 9.4 1.16 12.71 3.47 3.31 2.31 5.63 5.57 6.95 9.76 1.32 4.2 1.56 9.15.7 14.85-.84 5.64-2.57 10.57-5.19 14.81-2.61 4.23-6 7.5-10.15 9.81-4.16 2.31-9.02 3.46-14.6 3.46-4.5 0-8.21-.84-11.14-2.52-2.93-1.68-5.09-4.08-6.48-7.2h-3.78l-1.29 8.64H10.36l2.01-13.41h6.66l9.04-60.47H16.46c-1.37 0-2.48 1.18-2.48 2.63L4.1 80.55c0 1.45 1.11 2.63 2.48 2.63h70.83c1.25 0 2.3-.99 2.46-2.3L89.98 6.75c.19-1.57-.97-2.96-2.46-2.96Z" class="cls-1"/></svg>